<svg aria-hidden="true" style="position: absolute; width: 0; height: 0; overflow: hidden;" version="1.1" xmlns="http://www.w3.org/2000/svg" xmlns:xlink="http://www.w3.org/1999/xlink">
<defs>
<symbol id="icon-helmet" viewBox="0 0 29 32">
<path fill="#fff" style="fill: var(--color1, #fff)" d="M9.551 31.894c-0.736-0.071-1.443-0.291-2.075-0.643-0.412-0.227-0.796-0.512-1.134-0.846-0.171-0.163-0.327-0.341-0.473-0.529-1.159-1.492-2.754-4.421-3.863-6.599-0.316-0.622-0.586-1.347-0.817-2.136-0.48-1.635-0.778-3.529-0.896-5.245-0.039-0.565-0.060-1.116-0.060-1.628 0-1.592 0.263-3.12 0.753-4.545 1.514-4.424 5.167-7.846 9.726-9.037 0.387-0.103 0.782-0.188 1.183-0.256 0.529-0.092 1.070-0.153 1.62-0.178 0.22-0.014 0.441-0.021 0.665-0.021 0.025-0.004 0.050-0.004 0.075-0.004h0.039c0.025 0 0.050 0 0.075 0.004 0.224 0 0.444 0.007 0.665 0.021 0.551 0.025 1.091 0.085 1.62 0.178 0.402 0.068 0.796 0.153 1.183 0.256 4.563 1.19 8.212 4.616 9.726 9.037 0.49 1.425 0.753 2.953 0.753 4.545 0 0.512-0.021 1.063-0.060 1.628-0.117 1.72-0.416 3.614-0.895 5.245-0.231 0.789-0.501 1.514-0.817 2.136-1.109 2.182-2.704 5.107-3.863 6.599-0.146 0.188-0.302 0.366-0.473 0.529-0.338 0.334-0.721 0.618-1.134 0.846-0.633 0.352-1.34 0.572-2.075 0.643h-9.449z"></path>
<path fill="#275183" style="fill: var(--color2, #275183)" d="M14.277 23.675c-0.373 0-0.746 0.085-1.080 0.249l-0.139 0.067c-0.991 0.483-2.097 0.739-3.198 0.739-0.622 0-1.24-0.078-1.841-0.235l-0.625-0.163c-2.939-0.768-5.195-3.074-5.881-6.020-0.37-1.581-0.476-3.134-0.316-4.62 0.114-1.052 0.988-1.844 2.033-1.844 0.128 0 0.256 0.011 0.384 0.036 3.877 0.743 7.068 1.059 10.664 1.059s6.787-0.32 10.664-1.059c0.128-0.025 0.256-0.036 0.384-0.036 1.045 0 1.919 0.792 2.033 1.844 0.16 1.482 0.053 3.038-0.316 4.62-0.689 2.946-2.942 5.252-5.881 6.020l-0.625 0.163c-0.601 0.156-1.219 0.235-1.841 0.235-1.102 0-2.207-0.256-3.198-0.739l-0.139-0.067c-0.334-0.16-0.707-0.249-1.080-0.249z"></path>
<path fill="#a5cdff" style="fill: var(--color3, #a5cdff)" d="M14.277 22.609c-0.529 0-1.059 0.121-1.546 0.359l-0.139 0.067c-1.336 0.654-2.864 0.807-4.303 0.43l-0.625-0.163c-2.541-0.665-4.517-2.676-5.114-5.231-0.327-1.393-0.448-2.85-0.295-4.261 0.060-0.576 0.59-0.984 1.159-0.874 3.831 0.732 7.139 1.077 10.863 1.080 3.724 0 7.033-0.345 10.863-1.080 0.569-0.11 1.095 0.302 1.159 0.874 0.153 1.411 0.028 2.871-0.295 4.261-0.597 2.559-2.573 4.566-5.114 5.231l-0.625 0.163c-1.439 0.377-2.967 0.224-4.303-0.43l-0.139-0.067c-0.487-0.238-1.016-0.359-1.546-0.359z"></path>
<path fill="#fff" style="fill: var(--color1, #fff)" d="M4.541 13.86l0.416 7.107c0.398 0.394 0.846 0.736 1.336 1.013l-0.476-7.914c-0.419-0.060-0.846-0.132-1.276-0.206z"></path>
<path fill="#fff" style="fill: var(--color1, #fff)" d="M6.442 14.158l0.512 8.149c0.288 0.121 0.583 0.227 0.892 0.306l0.625 0.163c0.455 0.117 0.924 0.178 1.393 0.178 0.185 0 0.366-0.014 0.551-0.032l-0.32-8.365c-1.205-0.089-2.409-0.22-3.653-0.398z"></path>
<path fill="#fff" style="fill: var(--color1, #fff)" d="M25.592 13.884c-0.014-0.146-0.131-0.256-0.267-0.256-0.018 0-0.032 0-0.050 0.004-0.263 0.050-0.519 0.096-0.778 0.142l-0.227 6.414c0.487-0.672 0.846-1.443 1.041-2.278 0.32-1.368 0.416-2.761 0.281-4.026z"></path>
<path fill="#3a88f0" style="fill: var(--color4, #3a88f0)" d="M10.717 0.686v8.98c0 0.885-0.768 1.581-1.649 1.492-3.067-0.306-5.291-0.757-8.077-1.436 1.51-4.421 5.163-7.846 9.726-9.037z"></path>
<path fill="#3a88f0" style="fill: var(--color4, #3a88f0)" d="M17.838 0.686v8.98c0 0.885 0.768 1.581 1.649 1.492 3.067-0.306 5.291-0.757 8.077-1.436-1.51-4.421-5.163-7.846-9.726-9.037z"></path>
<path fill="#275183" style="fill: var(--color2, #275183)" d="M14.27 11.301c-0.416 0-0.75-0.338-0.75-0.75v-9.57c0-0.412 0.331-0.75 0.739-0.753 0.007 0 0.014 0 0.018 0 0.007 0 0.014 0 0.018 0 0.412 0 0.739 0.341 0.739 0.753v9.57c0 0.416-0.338 0.75-0.75 0.75h-0.014z"></path>
<path fill="#3a88f0" style="fill: var(--color4, #3a88f0)" d="M9.551 31.894c-0.736-0.071-1.443-0.291-2.075-0.643 1.535-3.244 4.005-6.020 6.802-6.048 2.797 0.028 5.266 2.807 6.802 6.048-0.633 0.352-1.34 0.572-2.075 0.643h-9.453z"></path>
<path fill="#3a88f0" style="fill: var(--color4, #3a88f0)" d="M8.602 26.887c-0.885 1.023-1.642 2.232-2.26 3.522-0.171-0.163-0.327-0.341-0.473-0.529-1.159-1.493-2.754-4.421-3.863-6.599-0.316-0.622-0.586-1.347-0.817-2.136 1.535 2.921 4.396 4.41 6.983 4.669 0.537 0.050 0.782 0.668 0.43 1.073z"></path>
<path fill="#3a88f0" style="fill: var(--color4, #3a88f0)" d="M19.952 26.887c0.885 1.023 1.642 2.232 2.26 3.522 0.171-0.163 0.327-0.341 0.473-0.529 1.159-1.493 2.754-4.421 3.863-6.599 0.316-0.622 0.586-1.347 0.817-2.136-1.535 2.921-4.396 4.41-6.983 4.669-0.537 0.050-0.782 0.668-0.43 1.073z"></path>
</symbol>
</defs>
</svg>
